<svg width="127" height="86" viewBox="0 0 127 86" fill="none" xmlns="http://www.w3.org/2000/svg">
<g id="WES_Logo_RGB-Primary_Green 1">
<path id="Vector" d="M126.862 31.5062C124.612 8.62872 94.4171 -4.77416 59.4172 1.5738C24.4245 7.92177 -2.11943 31.6155 0.130673 54.5002C2.38077 77.3777 32.5757 90.7806 67.5756 84.4326C102.568 78.0846 129.112 54.3909 126.862 31.5135V31.5062ZM67.6119 81.1602C36.1976 84.5784 8.88429 70.2645 6.61241 49.1945C5.7777 41.4763 8.43427 33.9331 13.653 27.2936C15.2717 27.884 16.208 29.5748 17.1588 32.1694L27.277 60.8336H30.478C31.7047 53.8224 33.4031 47.4599 36.096 34.1809C39.1155 44.0272 42.6721 54.7845 44.4141 60.8336H48.0505L53.3782 35.573C54.2347 31.4916 55.6573 28.8241 57.5373 27.7018C57.6752 27.6362 57.8639 27.5633 58.0671 27.5633C58.3865 27.5633 58.6115 27.8038 58.6115 27.8038C59.2357 28.3723 59.6494 29.3635 59.6494 31.1272V55.8194C59.6494 59.2229 57.5808 59.857 55.7807 60.0319L55.6138 60.0465V60.8336H81.5916L81.6206 60.6879L83.7836 50.5792L83.8271 50.3606H82.7311L82.6948 50.4991C81.0907 56.7814 75.088 59.6384 70.1814 59.6384H66.0804V43.5462H68.9112C73.9993 43.5462 76.0897 45.0038 76.9026 49.1143L76.9317 49.2601H77.897V36.5933H76.9317L76.9026 36.7391C76.097 40.8496 73.9993 42.3072 68.9112 42.3072H66.0804V27.4904H70.3701C72.6565 27.4904 78.3108 28.2047 81.5335 34.8587L81.5843 34.9608H82.6005L82.5569 34.7421L80.8367 26.4409L80.8076 26.2952H47.165V27.0896L47.3392 27.1041C48.8417 27.177 49.9885 27.6945 50.7579 28.6347C52.1152 30.3036 52.333 33.3792 51.4112 37.7594L48.5369 51.4757C44.9222 40.3831 41.7358 30.8284 40.4583 26.0911H35.9436C35.6895 28.1536 32.7208 42.5623 30.8917 51.4174L24.2866 32.4318C23.568 30.4348 23.5099 28.9553 24.1124 28.0516C24.5116 27.454 25.1866 27.1187 26.1302 27.0531H26.3044V26.266H14.4732C23.6914 15.2755 40.0518 6.95245 59.3736 4.84618C90.7879 1.42804 118.101 15.7419 120.373 36.8119C122.645 57.8819 99.0189 77.7348 67.6046 81.1529L67.6119 81.1602Z" fill="#01A769"/>
<path id="Vector_2" d="M97.1609 39.5669C92.9583 37.6865 88.9952 35.9082 88.9952 32.184C88.9952 28.4598 92.4647 26.5576 95.9124 26.5576C100.376 26.5576 103.193 29.7133 104.042 35.675L104.064 35.8135L105 35.952L106.764 27.8913L106.648 27.8257C103.955 26.2879 100.122 25.3623 96.3987 25.3623C87.9717 25.3623 84.9813 30.566 84.9813 35.0191C84.9813 41.5711 89.9025 43.7721 94.664 45.9003C98.8376 47.7587 102.779 49.5225 102.779 54.1577C102.779 58.793 99.2077 60.3672 95.8616 60.3672C91.3542 60.3672 88.8355 57.5248 87.529 50.8999C87.3475 49.8942 87.2967 48.9613 87.2967 48.9613L86.5273 48.852L84.3716 58.8003L84.5022 58.8586C86.1789 59.6749 90.6065 61.5625 95.5205 61.5625C102.496 61.5625 107.954 56.8908 107.954 50.9364C107.954 44.4062 102.22 41.8335 97.1609 39.5669Z" fill="#01A769"/>
</g>
</svg>
